<svg width="24" height="24" viewBox="0 0 24 24" fill="none" xmlns="http://www.w3.org/2000/svg">
<path fill-rule="evenodd" clip-rule="evenodd" d="M12.2797 3.71579C12.0971 3.66261 11.9031 3.66261 11.7205 3.71579C11.6679 3.7311 11.5755 3.7694 11.379 3.91817C11.1724 4.07463 10.9194 4.29855 10.5252 4.64896L5.28556 9.3064C4.64321 9.87739 4.46111 10.0496 4.33452 10.24C4.21274 10.4232 4.12201 10.6252 4.066 10.8379C4.00777 11.0591 4.00008 11.3095 4.00008 12.169V17.17C4.00008 18.041 4.00088 18.6331 4.03887 19.0905C4.07586 19.536 4.14287 19.7634 4.22525 19.9219C4.415 20.2872 4.71284 20.5851 5.07813 20.7748C5.23671 20.8572 5.46409 20.9242 5.90953 20.9612C6.36694 20.9992 6.95905 21 7.83008 21H8.00007V18C8.00007 15.7909 9.79094 14 12.0001 14C14.2092 14 16.0001 15.7909 16.0001 18V21H16.1701C17.0411 21 17.6332 20.9992 18.0906 20.9612C18.5361 20.9242 18.7634 20.8572 18.922 20.7748C19.2873 20.5851 19.5851 20.2872 19.7749 19.9219C19.8573 19.7634 19.9243 19.536 19.9613 19.0905C19.9993 18.6331 20.0001 18.041 20.0001 17.17V12.169C20.0001 11.3095 19.9924 11.0591 19.9342 10.8379C19.8781 10.6252 19.7874 10.4232 19.6656 10.24C19.539 10.0496 19.3569 9.87739 18.7146 9.3064L13.475 4.64896C13.0808 4.29855 12.8278 4.07463 12.6211 3.91817C12.4246 3.7694 12.3322 3.7311 12.2797 3.71579ZM11.1612 1.79556C11.7091 1.63602 12.2911 1.63602 12.8389 1.79556C13.219 1.90627 13.5342 2.10095 13.8284 2.32363C14.1054 2.53335 14.4173 2.81064 14.7765 3.12995L20.0433 7.81159C20.0717 7.83679 20.0997 7.86165 20.1273 7.88619C20.649 8.34941 21.0431 8.69935 21.3312 9.13277C21.5748 9.49916 21.7562 9.90321 21.8682 10.3287C22.0008 10.832 22.0005 11.359 22.0001 12.0566C22.0001 12.0936 22.0001 12.131 22.0001 12.169V17.212C22.0001 18.0305 22.0001 18.7061 21.9544 19.2561C21.907 19.8274 21.8051 20.3523 21.5497 20.8439C21.1702 21.5745 20.5745 22.1701 19.844 22.5496C19.3523 22.805 18.8275 22.9069 18.2561 22.9543C17.7061 23 17.0306 23 16.2121 23H15.8051C15.7973 23 15.7895 23 15.7816 23C15.6604 23 15.5158 23.0001 15.3884 22.9895C15.2407 22.9773 15.0293 22.9458 14.8086 22.8311C14.5346 22.6888 14.3113 22.4654 14.169 22.1915C14.0543 21.9707 14.0228 21.7593 14.0105 21.6116C14 21.4843 14 21.3396 14.0001 21.2185L14.0001 18C14.0001 16.8954 13.1046 16 12.0001 16C10.8955 16 10.0001 16.8954 10.0001 18L10.0001 21.2185C10.0001 21.3396 10.0002 21.4843 9.98961 21.6116C9.97734 21.7593 9.94585 21.9707 9.8312 22.1915C9.68888 22.4654 9.4655 22.6888 9.19154 22.8311C8.97082 22.9458 8.75941 22.9773 8.61172 22.9895C8.48436 23.0001 8.33971 23 8.21859 23C8.21065 23 8.20281 23 8.19508 23H7.7881C6.96956 23 6.29401 23 5.74401 22.9543C5.17266 22.9069 4.64781 22.805 4.15618 22.5496C3.42561 22.1701 2.82992 21.5745 2.45042 20.8439C2.19504 20.3523 2.09317 19.8274 2.04573 19.2561C2.00005 18.7061 2.00006 18.0305 2.00008 17.212L2.00008 12.169C2.00008 12.131 2.00006 12.0936 2.00004 12.0566C1.99967 11.359 1.9994 10.832 2.13192 10.3287C2.24395 9.90321 2.4254 9.49916 2.66896 9.13277C2.95708 8.69935 3.35117 8.34941 3.87284 7.8862C3.90048 7.86165 3.92848 7.83679 3.95683 7.81159L9.22366 3.12996C9.58287 2.81064 9.8948 2.53335 10.1718 2.32363C10.4659 2.10095 10.7811 1.90627 11.1612 1.79556Z" fill="#0F1729"/>
</svg>
